<?xml version="1.0" encoding="utf-8" standalone="no"?>
<!DOCTYPE svg PUBLIC "-//W3C//DTD SVG 1.1//EN"
  "http://www.w3.org/Graphics/SVG/1.1/DTD/svg11.dtd">
<!-- Created with matplotlib (http://matplotlib.org/) -->
<svg height="345pt" version="1.1" viewBox="0 0 460 345" width="460pt" xmlns="http://www.w3.org/2000/svg" xmlns:xlink="http://www.w3.org/1999/xlink">
 <defs>
  <style type="text/css">
*{stroke-linecap:butt;stroke-linejoin:round;}
  </style>
 </defs>
 <g id="figure_1">
  <g id="patch_1">
   <path d="M 0 345.6 
L 460.8 345.6 
L 460.8 0 
L 0 0 
z
" style="fill:#ffffff;"/>
  </g>
  <g id="axes_1">
   <g id="patch_2">
    <path d="M 57.6 307.584 
L 414.72 307.584 
L 414.72 41.472 
L 57.6 41.472 
z
" style="fill:#ffffff;"/>
   </g>
   <g id="matplotlib.axis_1">
    <g id="xtick_1">
     <g id="line2d_1">
      <defs>
       <path d="M 0 0 
L 0 3.5 
" id="mf3b917e9cc" style="stroke:#000000;stroke-width:0.8;"/>
      </defs>
      <g>
       <use style="stroke:#000000;stroke-width:0.8;" x="57.6" xlink:href="#mf3b917e9cc" y="307.584"/>
      </g>
     </g>
     <g id="text_1">
      <!-- 0.0 -->
      <defs>
       <path d="M 31.78125 66.40625 
Q 24.171875 66.40625 20.328125 58.90625 
Q 16.5 51.421875 16.5 36.375 
Q 16.5 21.390625 20.328125 13.890625 
Q 24.171875 6.390625 31.78125 6.390625 
Q 39.453125 6.390625 43.28125 13.890625 
Q 47.125 21.390625 47.125 36.375 
Q 47.125 51.421875 43.28125 58.90625 
Q 39.453125 66.40625 31.78125 66.40625 
z
M 31.78125 74.21875 
Q 44.046875 74.21875 50.515625 64.515625 
Q 56.984375 54.828125 56.984375 36.375 
Q 56.984375 17.96875 50.515625 8.265625 
Q 44.046875 -1.421875 31.78125 -1.421875 
Q 19.53125 -1.421875 13.0625 8.265625 
Q 6.59375 17.96875 6.59375 36.375 
Q 6.59375 54.828125 13.0625 64.515625 
Q 19.53125 74.21875 31.78125 74.21875 
z
" id="DejaVuSans-30"/>
       <path d="M 10.6875 12.40625 
L 21 12.40625 
L 21 0 
L 10.6875 0 
z
" id="DejaVuSans-2e"/>
      </defs>
      <g transform="translate(49.648438 322.182437)scale(0.1 -0.1)">
       <use xlink:href="#DejaVuSans-30"/>
       <use x="63.623047" xlink:href="#DejaVuSans-2e"/>
       <use x="95.410156" xlink:href="#DejaVuSans-30"/>
      </g>
     </g>
    </g>
    <g id="xtick_2">
     <g id="line2d_2">
      <g>
       <use style="stroke:#000000;stroke-width:0.8;" x="129.024" xlink:href="#mf3b917e9cc" y="307.584"/>
      </g>
     </g>
     <g id="text_2">
      <!-- 0.2 -->
      <defs>
       <path d="M 19.1875 8.296875 
L 53.609375 8.296875 
L 53.609375 0 
L 7.328125 0 
L 7.328125 8.296875 
Q 12.9375 14.109375 22.625 23.890625 
Q 32.328125 33.6875 34.8125 36.53125 
Q 39.546875 41.84375 41.421875 45.53125 
Q 43.3125 49.21875 43.3125 52.78125 
Q 43.3125 58.59375 39.234375 62.25 
Q 35.15625 65.921875 28.609375 65.921875 
Q 23.96875 65.921875 18.8125 64.3125 
Q 13.671875 62.703125 7.8125 59.421875 
L 7.8125 69.390625 
Q 13.765625 71.78125 18.9375 73 
Q 24.125 74.21875 28.421875 74.21875 
Q 39.75 74.21875 46.484375 68.546875 
Q 53.21875 62.890625 53.21875 53.421875 
Q 53.21875 48.921875 51.53125 44.890625 
Q 49.859375 40.875 45.40625 35.40625 
Q 44.1875 33.984375 37.640625 27.21875 
Q 31.109375 20.453125 19.1875 8.296875 
z
" id="DejaVuSans-32"/>
      </defs>
      <g transform="translate(121.072438 322.182437)scale(0.1 -0.1)">
       <use xlink:href="#DejaVuSans-30"/>
       <use x="63.623047" xlink:href="#DejaVuSans-2e"/>
       <use x="95.410156" xlink:href="#DejaVuSans-32"/>
      </g>
     </g>
    </g>
    <g id="xtick_3">
     <g id="line2d_3">
      <g>
       <use style="stroke:#000000;stroke-width:0.8;" x="200.448" xlink:href="#mf3b917e9cc" y="307.584"/>
      </g>
     </g>
     <g id="text_3">
      <!-- 0.4 -->
      <defs>
       <path d="M 37.796875 64.3125 
L 12.890625 25.390625 
L 37.796875 25.390625 
z
M 35.203125 72.90625 
L 47.609375 72.90625 
L 47.609375 25.390625 
L 58.015625 25.390625 
L 58.015625 17.1875 
L 47.609375 17.1875 
L 47.609375 0 
L 37.796875 0 
L 37.796875 17.1875 
L 4.890625 17.1875 
L 4.890625 26.703125 
z
" id="DejaVuSans-34"/>
      </defs>
      <g transform="translate(192.496438 322.182437)scale(0.1 -0.1)">
       <use xlink:href="#DejaVuSans-30"/>
       <use x="63.623047" xlink:href="#DejaVuSans-2e"/>
       <use x="95.410156" xlink:href="#DejaVuSans-34"/>
      </g>
     </g>
    </g>
    <g id="xtick_4">
     <g id="line2d_4">
      <g>
       <use style="stroke:#000000;stroke-width:0.8;" x="271.872" xlink:href="#mf3b917e9cc" y="307.584"/>
      </g>
     </g>
     <g id="text_4">
      <!-- 0.6 -->
      <defs>
       <path d="M 33.015625 40.375 
Q 26.375 40.375 22.484375 35.828125 
Q 18.609375 31.296875 18.609375 23.390625 
Q 18.609375 15.53125 22.484375 10.953125 
Q 26.375 6.390625 33.015625 6.390625 
Q 39.65625 6.390625 43.53125 10.953125 
Q 47.40625 15.53125 47.40625 23.390625 
Q 47.40625 31.296875 43.53125 35.828125 
Q 39.65625 40.375 33.015625 40.375 
z
M 52.59375 71.296875 
L 52.59375 62.3125 
Q 48.875 64.0625 45.09375 64.984375 
Q 41.3125 65.921875 37.59375 65.921875 
Q 27.828125 65.921875 22.671875 59.328125 
Q 17.53125 52.734375 16.796875 39.40625 
Q 19.671875 43.65625 24.015625 45.921875 
Q 28.375 48.1875 33.59375 48.1875 
Q 44.578125 48.1875 50.953125 41.515625 
Q 57.328125 34.859375 57.328125 23.390625 
Q 57.328125 12.15625 50.6875 5.359375 
Q 44.046875 -1.421875 33.015625 -1.421875 
Q 20.359375 -1.421875 13.671875 8.265625 
Q 6.984375 17.96875 6.984375 36.375 
Q 6.984375 53.65625 15.1875 63.9375 
Q 23.390625 74.21875 37.203125 74.21875 
Q 40.921875 74.21875 44.703125 73.484375 
Q 48.484375 72.75 52.59375 71.296875 
z
" id="DejaVuSans-36"/>
      </defs>
      <g transform="translate(263.920438 322.182437)scale(0.1 -0.1)">
       <use xlink:href="#DejaVuSans-30"/>
       <use x="63.623047" xlink:href="#DejaVuSans-2e"/>
       <use x="95.410156" xlink:href="#DejaVuSans-36"/>
      </g>
     </g>
    </g>
    <g id="xtick_5">
     <g id="line2d_5">
      <g>
       <use style="stroke:#000000;stroke-width:0.8;" x="343.296" xlink:href="#mf3b917e9cc" y="307.584"/>
      </g>
     </g>
     <g id="text_5">
      <!-- 0.8 -->
      <defs>
       <path d="M 31.78125 34.625 
Q 24.75 34.625 20.71875 30.859375 
Q 16.703125 27.09375 16.703125 20.515625 
Q 16.703125 13.921875 20.71875 10.15625 
Q 24.75 6.390625 31.78125 6.390625 
Q 38.8125 6.390625 42.859375 10.171875 
Q 46.921875 13.96875 46.921875 20.515625 
Q 46.921875 27.09375 42.890625 30.859375 
Q 38.875 34.625 31.78125 34.625 
z
M 21.921875 38.8125 
Q 15.578125 40.375 12.03125 44.71875 
Q 8.5 49.078125 8.5 55.328125 
Q 8.5 64.0625 14.71875 69.140625 
Q 20.953125 74.21875 31.78125 74.21875 
Q 42.671875 74.21875 48.875 69.140625 
Q 55.078125 64.0625 55.078125 55.328125 
Q 55.078125 49.078125 51.53125 44.71875 
Q 48 40.375 41.703125 38.8125 
Q 48.828125 37.15625 52.796875 32.3125 
Q 56.78125 27.484375 56.78125 20.515625 
Q 56.78125 9.90625 50.3125 4.234375 
Q 43.84375 -1.421875 31.78125 -1.421875 
Q 19.734375 -1.421875 13.25 4.234375 
Q 6.78125 9.90625 6.78125 20.515625 
Q 6.78125 27.484375 10.78125 32.3125 
Q 14.796875 37.15625 21.921875 38.8125 
z
M 18.3125 54.390625 
Q 18.3125 48.734375 21.84375 45.5625 
Q 25.390625 42.390625 31.78125 42.390625 
Q 38.140625 42.390625 41.71875 45.5625 
Q 45.3125 48.734375 45.3125 54.390625 
Q 45.3125 60.0625 41.71875 63.234375 
Q 38.140625 66.40625 31.78125 66.40625 
Q 25.390625 66.40625 21.84375 63.234375 
Q 18.3125 60.0625 18.3125 54.390625 
z
" id="DejaVuSans-38"/>
      </defs>
      <g transform="translate(335.344438 322.182437)scale(0.1 -0.1)">
       <use xlink:href="#DejaVuSans-30"/>
       <use x="63.623047" xlink:href="#DejaVuSans-2e"/>
       <use x="95.410156" xlink:href="#DejaVuSans-38"/>
      </g>
     </g>
    </g>
    <g id="xtick_6">
     <g id="line2d_6">
      <g>
       <use style="stroke:#000000;stroke-width:0.8;" x="414.72" xlink:href="#mf3b917e9cc" y="307.584"/>
      </g>
     </g>
     <g id="text_6">
      <!-- 1.0 -->
      <defs>
       <path d="M 12.40625 8.296875 
L 28.515625 8.296875 
L 28.515625 63.921875 
L 10.984375 60.40625 
L 10.984375 69.390625 
L 28.421875 72.90625 
L 38.28125 72.90625 
L 38.28125 8.296875 
L 54.390625 8.296875 
L 54.390625 0 
L 12.40625 0 
z
" id="DejaVuSans-31"/>
      </defs>
      <g transform="translate(406.768438 322.182437)scale(0.1 -0.1)">
       <use xlink:href="#DejaVuSans-31"/>
       <use x="63.623047" xlink:href="#DejaVuSans-2e"/>
       <use x="95.410156" xlink:href="#DejaVuSans-30"/>
      </g>
     </g>
    </g>
    <g id="text_7">
     <!-- False Positive Rate -->
     <defs>
      <path d="M 9.8125 72.90625 
L 51.703125 72.90625 
L 51.703125 64.59375 
L 19.671875 64.59375 
L 19.671875 43.109375 
L 48.578125 43.109375 
L 48.578125 34.8125 
L 19.671875 34.8125 
L 19.671875 0 
L 9.8125 0 
z
" id="DejaVuSans-46"/>
      <path d="M 34.28125 27.484375 
Q 23.390625 27.484375 19.1875 25 
Q 14.984375 22.515625 14.984375 16.5 
Q 14.984375 11.71875 18.140625 8.90625 
Q 21.296875 6.109375 26.703125 6.109375 
Q 34.1875 6.109375 38.703125 11.40625 
Q 43.21875 16.703125 43.21875 25.484375 
L 43.21875 27.484375 
z
M 52.203125 31.203125 
L 52.203125 0 
L 43.21875 0 
L 43.21875 8.296875 
Q 40.140625 3.328125 35.546875 0.953125 
Q 30.953125 -1.421875 24.3125 -1.421875 
Q 15.921875 -1.421875 10.953125 3.296875 
Q 6 8.015625 6 15.921875 
Q 6 25.140625 12.171875 29.828125 
Q 18.359375 34.515625 30.609375 34.515625 
L 43.21875 34.515625 
L 43.21875 35.40625 
Q 43.21875 41.609375 39.140625 45 
Q 35.0625 48.390625 27.6875 48.390625 
Q 23 48.390625 18.546875 47.265625 
Q 14.109375 46.140625 10.015625 43.890625 
L 10.015625 52.203125 
Q 14.9375 54.109375 19.578125 55.046875 
Q 24.21875 56 28.609375 56 
Q 40.484375 56 46.34375 49.84375 
Q 52.203125 43.703125 52.203125 31.203125 
z
" id="DejaVuSans-61"/>
      <path d="M 9.421875 75.984375 
L 18.40625 75.984375 
L 18.40625 0 
L 9.421875 0 
z
" id="DejaVuSans-6c"/>
      <path d="M 44.28125 53.078125 
L 44.28125 44.578125 
Q 40.484375 46.53125 36.375 47.5 
Q 32.28125 48.484375 27.875 48.484375 
Q 21.1875 48.484375 17.84375 46.4375 
Q 14.5 44.390625 14.5 40.28125 
Q 14.5 37.15625 16.890625 35.375 
Q 19.28125 33.59375 26.515625 31.984375 
L 29.59375 31.296875 
Q 39.15625 29.25 43.1875 25.515625 
Q 47.21875 21.78125 47.21875 15.09375 
Q 47.21875 7.46875 41.1875 3.015625 
Q 35.15625 -1.421875 24.609375 -1.421875 
Q 20.21875 -1.421875 15.453125 -0.5625 
Q 10.6875 0.296875 5.421875 2 
L 5.421875 11.28125 
Q 10.40625 8.6875 15.234375 7.390625 
Q 20.0625 6.109375 24.8125 6.109375 
Q 31.15625 6.109375 34.5625 8.28125 
Q 37.984375 10.453125 37.984375 14.40625 
Q 37.984375 18.0625 35.515625 20.015625 
Q 33.0625 21.96875 24.703125 23.78125 
L 21.578125 24.515625 
Q 13.234375 26.265625 9.515625 29.90625 
Q 5.8125 33.546875 5.8125 39.890625 
Q 5.8125 47.609375 11.28125 51.796875 
Q 16.75 56 26.8125 56 
Q 31.78125 56 36.171875 55.265625 
Q 40.578125 54.546875 44.28125 53.078125 
z
" id="DejaVuSans-73"/>
      <path d="M 56.203125 29.59375 
L 56.203125 25.203125 
L 14.890625 25.203125 
Q 15.484375 15.921875 20.484375 11.0625 
Q 25.484375 6.203125 34.421875 6.203125 
Q 39.59375 6.203125 44.453125 7.46875 
Q 49.3125 8.734375 54.109375 11.28125 
L 54.109375 2.78125 
Q 49.265625 0.734375 44.1875 -0.34375 
Q 39.109375 -1.421875 33.890625 -1.421875 
Q 20.796875 -1.421875 13.15625 6.1875 
Q 5.515625 13.8125 5.515625 26.8125 
Q 5.515625 40.234375 12.765625 48.109375 
Q 20.015625 56 32.328125 56 
Q 43.359375 56 49.78125 48.890625 
Q 56.203125 41.796875 56.203125 29.59375 
z
M 47.21875 32.234375 
Q 47.125 39.59375 43.09375 43.984375 
Q 39.0625 48.390625 32.421875 48.390625 
Q 24.90625 48.390625 20.390625 44.140625 
Q 15.875 39.890625 15.1875 32.171875 
z
" id="DejaVuSans-65"/>
      <path id="DejaVuSans-20"/>
      <path d="M 19.671875 64.796875 
L 19.671875 37.40625 
L 32.078125 37.40625 
Q 38.96875 37.40625 42.71875 40.96875 
Q 46.484375 44.53125 46.484375 51.125 
Q 46.484375 57.671875 42.71875 61.234375 
Q 38.96875 64.796875 32.078125 64.796875 
z
M 9.8125 72.90625 
L 32.078125 72.90625 
Q 44.34375 72.90625 50.609375 67.359375 
Q 56.890625 61.8125 56.890625 51.125 
Q 56.890625 40.328125 50.609375 34.8125 
Q 44.34375 29.296875 32.078125 29.296875 
L 19.671875 29.296875 
L 19.671875 0 
L 9.8125 0 
z
" id="DejaVuSans-50"/>
      <path d="M 30.609375 48.390625 
Q 23.390625 48.390625 19.1875 42.75 
Q 14.984375 37.109375 14.984375 27.296875 
Q 14.984375 17.484375 19.15625 11.84375 
Q 23.34375 6.203125 30.609375 6.203125 
Q 37.796875 6.203125 41.984375 11.859375 
Q 46.1875 17.53125 46.1875 27.296875 
Q 46.1875 37.015625 41.984375 42.703125 
Q 37.796875 48.390625 30.609375 48.390625 
z
M 30.609375 56 
Q 42.328125 56 49.015625 48.375 
Q 55.71875 40.765625 55.71875 27.296875 
Q 55.71875 13.875 49.015625 6.21875 
Q 42.328125 -1.421875 30.609375 -1.421875 
Q 18.84375 -1.421875 12.171875 6.21875 
Q 5.515625 13.875 5.515625 27.296875 
Q 5.515625 40.765625 12.171875 48.375 
Q 18.84375 56 30.609375 56 
z
" id="DejaVuSans-6f"/>
      <path d="M 9.421875 54.6875 
L 18.40625 54.6875 
L 18.40625 0 
L 9.421875 0 
z
M 9.421875 75.984375 
L 18.40625 75.984375 
L 18.40625 64.59375 
L 9.421875 64.59375 
z
" id="DejaVuSans-69"/>
      <path d="M 18.3125 70.21875 
L 18.3125 54.6875 
L 36.8125 54.6875 
L 36.8125 47.703125 
L 18.3125 47.703125 
L 18.3125 18.015625 
Q 18.3125 11.328125 20.140625 9.421875 
Q 21.96875 7.515625 27.59375 7.515625 
L 36.8125 7.515625 
L 36.8125 0 
L 27.59375 0 
Q 17.1875 0 13.234375 3.875 
Q 9.28125 7.765625 9.28125 18.015625 
L 9.28125 47.703125 
L 2.6875 47.703125 
L 2.6875 54.6875 
L 9.28125 54.6875 
L 9.28125 70.21875 
z
" id="DejaVuSans-74"/>
      <path d="M 2.984375 54.6875 
L 12.5 54.6875 
L 29.59375 8.796875 
L 46.6875 54.6875 
L 56.203125 54.6875 
L 35.6875 0 
L 23.484375 0 
z
" id="DejaVuSans-76"/>
      <path d="M 44.390625 34.1875 
Q 47.5625 33.109375 50.5625 29.59375 
Q 53.5625 26.078125 56.59375 19.921875 
L 66.609375 0 
L 56 0 
L 46.6875 18.703125 
Q 43.0625 26.03125 39.671875 28.421875 
Q 36.28125 30.8125 30.421875 30.8125 
L 19.671875 30.8125 
L 19.671875 0 
L 9.8125 0 
L 9.8125 72.90625 
L 32.078125 72.90625 
Q 44.578125 72.90625 50.734375 67.671875 
Q 56.890625 62.453125 56.890625 51.90625 
Q 56.890625 45.015625 53.6875 40.46875 
Q 50.484375 35.9375 44.390625 34.1875 
z
M 19.671875 64.796875 
L 19.671875 38.921875 
L 32.078125 38.921875 
Q 39.203125 38.921875 42.84375 42.21875 
Q 46.484375 45.515625 46.484375 51.90625 
Q 46.484375 58.296875 42.84375 61.546875 
Q 39.203125 64.796875 32.078125 64.796875 
z
" id="DejaVuSans-52"/>
     </defs>
     <g transform="translate(188.954531 335.860562)scale(0.1 -0.1)">
      <use xlink:href="#DejaVuSans-46"/>
      <use x="57.378906" xlink:href="#DejaVuSans-61"/>
      <use x="118.658203" xlink:href="#DejaVuSans-6c"/>
      <use x="146.441406" xlink:href="#DejaVuSans-73"/>
      <use x="198.541016" xlink:href="#DejaVuSans-65"/>
      <use x="260.064453" xlink:href="#DejaVuSans-20"/>
      <use x="291.851562" xlink:href="#DejaVuSans-50"/>
      <use x="352.107422" xlink:href="#DejaVuSans-6f"/>
      <use x="413.289062" xlink:href="#DejaVuSans-73"/>
      <use x="465.388672" xlink:href="#DejaVuSans-69"/>
      <use x="493.171875" xlink:href="#DejaVuSans-74"/>
      <use x="532.380859" xlink:href="#DejaVuSans-69"/>
      <use x="560.164062" xlink:href="#DejaVuSans-76"/>
      <use x="619.34375" xlink:href="#DejaVuSans-65"/>
      <use x="680.867188" xlink:href="#DejaVuSans-20"/>
      <use x="712.654297" xlink:href="#DejaVuSans-52"/>
      <use x="782.105469" xlink:href="#DejaVuSans-61"/>
      <use x="843.384766" xlink:href="#DejaVuSans-74"/>
      <use x="882.59375" xlink:href="#DejaVuSans-65"/>
     </g>
    </g>
   </g>
   <g id="matplotlib.axis_2">
    <g id="ytick_1">
     <g id="line2d_7">
      <defs>
       <path d="M 0 0 
L -3.5 0 
" id="m6b75c7c1e2" style="stroke:#000000;stroke-width:0.8;"/>
      </defs>
      <g>
       <use style="stroke:#000000;stroke-width:0.8;" x="57.6" xlink:href="#m6b75c7c1e2" y="307.584"/>
      </g>
     </g>
     <g id="text_8">
      <!-- 0.0 -->
      <g transform="translate(34.696875 311.383219)scale(0.1 -0.1)">
       <use xlink:href="#DejaVuSans-30"/>
       <use x="63.623047" xlink:href="#DejaVuSans-2e"/>
       <use x="95.410156" xlink:href="#DejaVuSans-30"/>
      </g>
     </g>
    </g>
    <g id="ytick_2">
     <g id="line2d_8">
      <g>
       <use style="stroke:#000000;stroke-width:0.8;" x="57.6" xlink:href="#m6b75c7c1e2" y="254.3616"/>
      </g>
     </g>
     <g id="text_9">
      <!-- 0.2 -->
      <g transform="translate(34.696875 258.160819)scale(0.1 -0.1)">
       <use xlink:href="#DejaVuSans-30"/>
       <use x="63.623047" xlink:href="#DejaVuSans-2e"/>
       <use x="95.410156" xlink:href="#DejaVuSans-32"/>
      </g>
     </g>
    </g>
    <g id="ytick_3">
     <g id="line2d_9">
      <g>
       <use style="stroke:#000000;stroke-width:0.8;" x="57.6" xlink:href="#m6b75c7c1e2" y="201.1392"/>
      </g>
     </g>
     <g id="text_10">
      <!-- 0.4 -->
      <g transform="translate(34.696875 204.938419)scale(0.1 -0.1)">
       <use xlink:href="#DejaVuSans-30"/>
       <use x="63.623047" xlink:href="#DejaVuSans-2e"/>
       <use x="95.410156" xlink:href="#DejaVuSans-34"/>
      </g>
     </g>
    </g>
    <g id="ytick_4">
     <g id="line2d_10">
      <g>
       <use style="stroke:#000000;stroke-width:0.8;" x="57.6" xlink:href="#m6b75c7c1e2" y="147.9168"/>
      </g>
     </g>
     <g id="text_11">
      <!-- 0.6 -->
      <g transform="translate(34.696875 151.716019)scale(0.1 -0.1)">
       <use xlink:href="#DejaVuSans-30"/>
       <use x="63.623047" xlink:href="#DejaVuSans-2e"/>
       <use x="95.410156" xlink:href="#DejaVuSans-36"/>
      </g>
     </g>
    </g>
    <g id="ytick_5">
     <g id="line2d_11">
      <g>
       <use style="stroke:#000000;stroke-width:0.8;" x="57.6" xlink:href="#m6b75c7c1e2" y="94.6944"/>
      </g>
     </g>
     <g id="text_12">
      <!-- 0.8 -->
      <g transform="translate(34.696875 98.493619)scale(0.1 -0.1)">
       <use xlink:href="#DejaVuSans-30"/>
       <use x="63.623047" xlink:href="#DejaVuSans-2e"/>
       <use x="95.410156" xlink:href="#DejaVuSans-38"/>
      </g>
     </g>
    </g>
    <g id="ytick_6">
     <g id="line2d_12">
      <g>
       <use style="stroke:#000000;stroke-width:0.8;" x="57.6" xlink:href="#m6b75c7c1e2" y="41.472"/>
      </g>
     </g>
     <g id="text_13">
      <!-- 1.0 -->
      <g transform="translate(34.696875 45.271219)scale(0.1 -0.1)">
       <use xlink:href="#DejaVuSans-31"/>
       <use x="63.623047" xlink:href="#DejaVuSans-2e"/>
       <use x="95.410156" xlink:href="#DejaVuSans-30"/>
      </g>
     </g>
    </g>
    <g id="text_14">
     <!-- True Positive Rate -->
     <defs>
      <path d="M -0.296875 72.90625 
L 61.375 72.90625 
L 61.375 64.59375 
L 35.5 64.59375 
L 35.5 0 
L 25.59375 0 
L 25.59375 64.59375 
L -0.296875 64.59375 
z
" id="DejaVuSans-54"/>
      <path d="M 41.109375 46.296875 
Q 39.59375 47.171875 37.8125 47.578125 
Q 36.03125 48 33.890625 48 
Q 26.265625 48 22.1875 43.046875 
Q 18.109375 38.09375 18.109375 28.8125 
L 18.109375 0 
L 9.078125 0 
L 9.078125 54.6875 
L 18.109375 54.6875 
L 18.109375 46.1875 
Q 20.953125 51.171875 25.484375 53.578125 
Q 30.03125 56 36.53125 56 
Q 37.453125 56 38.578125 55.875 
Q 39.703125 55.765625 41.0625 55.515625 
z
" id="DejaVuSans-72"/>
      <path d="M 8.5 21.578125 
L 8.5 54.6875 
L 17.484375 54.6875 
L 17.484375 21.921875 
Q 17.484375 14.15625 20.5 10.265625 
Q 23.53125 6.390625 29.59375 6.390625 
Q 36.859375 6.390625 41.078125 11.03125 
Q 45.3125 15.671875 45.3125 23.6875 
L 45.3125 54.6875 
L 54.296875 54.6875 
L 54.296875 0 
L 45.3125 0 
L 45.3125 8.40625 
Q 42.046875 3.421875 37.71875 1 
Q 33.40625 -1.421875 27.6875 -1.421875 
Q 18.265625 -1.421875 13.375 4.4375 
Q 8.5 10.296875 8.5 21.578125 
z
M 31.109375 56 
z
" id="DejaVuSans-75"/>
     </defs>
     <g transform="translate(28.617187 220.074094)rotate(-90)scale(0.1 -0.1)">
      <use xlink:href="#DejaVuSans-54"/>
      <use x="60.865234" xlink:href="#DejaVuSans-72"/>
      <use x="101.978516" xlink:href="#DejaVuSans-75"/>
      <use x="165.357422" xlink:href="#DejaVuSans-65"/>
      <use x="226.880859" xlink:href="#DejaVuSans-20"/>
      <use x="258.667969" xlink:href="#DejaVuSans-50"/>
      <use x="318.923828" xlink:href="#DejaVuSans-6f"/>
      <use x="380.105469" xlink:href="#DejaVuSans-73"/>
      <use x="432.205078" xlink:href="#DejaVuSans-69"/>
      <use x="459.988281" xlink:href="#DejaVuSans-74"/>
      <use x="499.197266" xlink:href="#DejaVuSans-69"/>
      <use x="526.980469" xlink:href="#DejaVuSans-76"/>
      <use x="586.160156" xlink:href="#DejaVuSans-65"/>
      <use x="647.683594" xlink:href="#DejaVuSans-20"/>
      <use x="679.470703" xlink:href="#DejaVuSans-52"/>
      <use x="748.921875" xlink:href="#DejaVuSans-61"/>
      <use x="810.201172" xlink:href="#DejaVuSans-74"/>
      <use x="849.410156" xlink:href="#DejaVuSans-65"/>
     </g>
    </g>
   </g>
   <g id="line2d_13">
    <path clip-path="url(#p9ae2891c2c)" d="M 57.6 307.584 
L 57.710579 300.302511 
L 57.714915 300.263363 
L 57.825494 295.285069 
L 57.827662 295.285069 
L 57.938241 288.491296 
L 57.942578 288.396689 
L 58.053157 283.028548 
L 58.06183 282.966564 
L 58.172408 279.948922 
L 58.176745 279.862471 
L 58.287324 275.905282 
L 58.300333 275.826986 
L 58.410912 272.455383 
L 58.419585 272.362407 
L 58.530164 269.610643 
L 58.538837 269.504618 
L 58.649416 266.309179 
L 58.651584 266.309179 
L 58.651584 266.203154 
L 58.762163 262.332416 
L 58.766499 262.25249 
L 58.877078 259.154921 
L 58.892255 259.096199 
L 59.002834 256.209049 
L 59.005003 256.209049 
L 59.115581 253.610615 
L 59.122086 253.535582 
L 59.232665 251.317207 
L 59.237001 251.230755 
L 59.34758 249.302727 
L 59.362758 249.247267 
L 59.362758 249.23748 
L 59.473337 246.660251 
L 59.479841 246.550963 
L 59.59042 243.748634 
L 59.601261 243.647502 
L 59.71184 241.535153 
L 59.714009 241.535153 
L 59.714009 241.427496 
L 59.824587 239.27763 
L 59.83326 239.227064 
L 59.943839 236.742811 
L 59.95468 236.631892 
L 60.065259 234.878397 
L 60.071764 234.770741 
L 60.182343 232.987885 
L 60.188847 232.92427 
L 60.299426 230.639018 
L 60.312436 230.541148 
L 60.423014 228.498938 
L 60.436024 228.409225 
L 60.546603 226.840051 
L 60.550939 226.833526 
L 60.661518 225.003367 
L 60.670191 224.905497 
L 60.670191 224.897342 
L 60.78077 223.16179 
L 60.798115 223.010092 
L 60.908694 221.354467 
L 60.913031 221.310425 
L 61.02361 219.313888 
L 61.030114 219.202969 
L 61.140693 217.154235 
L 61.155871 217.04821 
L 61.26645 214.940754 
L 61.279459 214.877138 
L 61.390038 212.772945 
L 61.405215 212.662026 
L 61.515794 210.755202 
L 61.524467 210.655702 
L 61.635046 209.221914 
L 61.643719 209.114257 
L 61.754298 207.536928 
L 61.762971 207.457001 
L 61.87355 205.387062 
L 61.882222 205.297348 
L 61.992801 203.253507 
L 62.001474 203.157269 
L 62.112053 201.465758 
L 62.127231 201.35647 
L 62.237809 200.170618 
L 62.257323 200.062962 
L 62.367902 198.705839 
L 62.372239 198.700945 
L 62.482818 196.980073 
L 62.495827 196.918089 
L 62.604238 195.386432 
L 62.61291 195.282038 
L 62.723489 193.897185 
L 62.736499 193.807471 
L 62.847078 192.558004 
L 62.857919 192.455241 
L 62.968498 191.315062 
L 62.970666 191.315062 
L 62.970666 191.231873 
L 63.081245 189.584403 
L 63.092086 189.486534 
L 63.092086 189.48164 
L 63.202665 188.036434 
L 63.22001 187.928778 
L 63.330589 186.527613 
L 63.347935 186.418326 
L 63.458514 185.066096 
L 63.473691 184.979645 
L 63.58427 183.878613 
L 63.59728 183.793793 
L 63.707858 182.428513 
L 63.723036 182.317595 
L 63.833615 181.314433 
L 63.842288 181.272023 
L 63.842288 181.25408 
L 63.952867 179.888801 
L 63.961539 179.802349 
L 64.072118 178.828548 
L 64.080791 178.722523 
L 64.19137 177.69 
L 64.204379 177.582343 
L 64.314958 176.347557 
L 64.325799 176.272523 
L 64.43421 174.952917 
L 64.445051 174.905613 
L 64.553462 173.724655 
L 64.575144 173.616998 
L 64.683555 172.561639 
L 64.711741 172.457245 
L 64.82232 171.209409 
L 64.839666 171.116433 
L 64.950245 170.085541 
L 64.961086 169.990934 
L 65.069497 168.961674 
L 65.082506 168.875222 
L 65.193085 167.692633 
L 65.216935 167.591501 
L 65.327514 166.63238 
L 65.338355 166.524724 
L 65.448934 165.621062 
L 65.46628 165.518299 
L 65.576859 164.725556 
L 65.592036 164.652154 
L 65.592036 164.647261 
L 65.702615 163.781116 
L 65.724297 163.683246 
L 65.834876 162.792634 
L 65.852222 162.691502 
L 65.960633 161.689971 
L 65.982315 161.593733 
L 65.982315 161.579053 
L 66.092894 160.628088 
L 66.108071 160.525325 
L 66.21865 159.840238 
L 66.238164 159.732582 
L 66.348743 158.608714 
L 66.366089 158.548361 
L 66.476668 157.47669 
L 66.489677 157.367403 
L 66.600256 156.390339 
L 66.615433 156.290839 
L 66.723844 155.653056 
L 66.745526 155.563342 
L 66.856105 154.733083 
L 66.875619 154.622164 
L 66.986198 153.928922 
L 66.999207 153.837577 
L 67.109786 152.945334 
L 67.124963 152.839308 
L 67.235542 152.102025 
L 67.25072 152.012311 
L 67.359131 151.19347 
L 67.380813 151.090707 
L 67.487055 150.407252 
L 67.51741 150.299596 
L 67.627989 149.408983 
L 67.643167 149.307851 
L 67.753745 148.684749 
L 67.777596 148.593404 
L 67.888175 147.95399 
L 67.909857 147.851227 
L 68.020436 147.224863 
L 68.033445 147.130256 
L 68.144024 146.273898 
L 68.157033 146.211914 
L 68.267612 145.23485 
L 68.289294 145.130456 
L 68.399873 144.466575 
L 68.415051 144.360549 
L 68.52563 143.838579 
L 68.547312 143.748865 
L 68.657891 143.168173 
L 68.69475 143.060517 
L 68.805329 142.476562 
L 68.824843 142.367274 
L 68.935422 141.646303 
L 68.946263 141.568007 
L 68.946263 141.548433 
L 69.056842 140.874765 
L 69.078524 140.765477 
L 69.189103 140.214146 
L 69.208617 140.127695 
L 69.208617 140.12117 
L 69.319196 139.545371 
L 69.351719 139.447502 
L 69.462298 139.023401 
L 69.494821 138.912482 
L 69.603232 138.328527 
L 69.64226 138.222502 
L 69.752839 137.589613 
L 69.774521 137.480325 
L 69.882932 137.061118 
L 69.911118 136.953461 
L 70.021697 136.322203 
L 70.039043 136.237383 
L 70.147454 135.707257 
L 70.195154 135.596338 
L 70.303565 135.151032 
L 70.314406 135.051531 
L 70.424985 134.496937 
L 70.457508 134.425166 
L 70.568087 133.939081 
L 70.598442 133.850999 
L 70.709021 133.306192 
L 70.741544 133.196905 
L 70.741544 133.195273 
L 70.852123 132.701032 
L 70.88031 132.606425 
L 70.990889 132.10566 
L 71.012571 131.994741 
L 71.120982 131.61305 
L 71.149168 131.520074 
L 71.259747 130.947538 
L 71.285766 130.83825 
L 71.396345 130.344009 
L 71.4267 130.236353 
L 71.537279 129.846506 
L 71.561129 129.737219 
L 71.671708 129.334323 
L 71.704231 129.225035 
L 71.81481 128.644343 
L 71.83866 128.535055 
L 71.949239 128.081593 
L 71.986099 127.982093 
L 72.096678 127.435655 
L 72.137874 127.332892 
L 72.248453 126.799503 
L 72.267967 126.698371 
L 72.378546 126.176401 
L 72.413237 126.065482 
L 72.523816 125.530462 
L 72.584526 125.424437 
L 72.695105 125.029697 
L 72.729796 124.933458 
L 72.840375 124.38702 
L 72.859889 124.28752 
L 72.9683 123.886255 
L 72.989982 123.78023 
L 73.098393 123.312087 
L 73.139589 123.2028 
L 73.250168 122.739551 
L 73.289195 122.6531 
L 73.399774 122.181695 
L 73.423625 122.083825 
L 73.534204 121.64015 
L 73.571063 121.530863 
L 73.681642 121.052934 
L 73.716334 120.946908 
L 73.826913 120.674505 
L 73.844258 120.594578 
L 73.954837 120.087288 
L 73.996033 119.976369 
L 74.106612 119.589785 
L 74.141304 119.495178 
L 74.251882 118.965051 
L 74.301751 118.855764 
L 74.41233 118.37131 
L 74.440517 118.266916 
L 74.551096 117.90643 
L 74.587956 117.795511 
L 74.698534 117.503534 
L 74.722385 117.400771 
L 74.832964 117.050072 
L 74.885001 116.947309 
L 74.99558 116.663488 
L 75.036776 116.552569 
L 75.147355 116.267116 
L 75.186383 116.161091 
L 75.294793 115.813654 
L 75.32298 115.704367 
L 75.433559 115.275372 
L 75.455241 115.170978 
L 75.56582 114.898575 
L 75.620025 114.789287 
L 75.728436 114.518515 
L 75.773969 114.409227 
L 75.884547 114.082996 
L 75.917071 113.980233 
L 76.025481 113.574074 
L 76.062341 113.466418 
L 76.17292 113.151605 
L 76.201107 113.056997 
L 76.311686 112.735659 
L 76.337704 112.628003 
L 76.448283 112.247943 
L 76.493816 112.137024 
L 76.604394 111.796112 
L 76.647759 111.686825 
L 76.758338 111.283929 
L 76.80387 111.184428 
L 76.914449 110.876139 
L 76.96215 110.76522 
L 77.072729 110.417784 
L 77.109588 110.310127 
L 77.220167 110.023044 
L 77.257027 109.917018 
L 77.257027 109.912125 
L 77.337251 109.719648 
L 77.445661 109.401572 
L 77.50854 109.295547 
L 77.619119 109.036193 
L 77.660315 108.936692 
L 77.770894 108.670814 
L 77.801249 108.56642 
L 77.911827 108.279336 
L 77.948687 108.18636 
L 77.948687 108.178204 
L 78.059266 107.811193 
L 78.089621 107.723111 
L 78.2002 107.444183 
L 78.23706 107.338158 
L 78.343302 107.069017 
L 78.380162 106.958098 
L 78.490741 106.711793 
L 78.566628 106.610661 
L 78.677207 106.28443 
L 78.714067 106.173511 
L 78.824645 105.892952 
L 78.872346 105.788558 
L 78.982925 105.578138 
L 79.01328 105.473744 
L 79.121691 105.238857 
L 79.17156 105.12957 
L 79.27997 104.878371 
L 79.312494 104.77724 
L 79.420904 104.464057 
L 79.479446 104.358032 
L 79.587857 104.126408 
L 79.631221 104.015489 
L 79.7418 103.772446 
L 79.791669 103.661528 
L 79.902248 103.421747 
L 79.928266 103.328771 
L 80.038845 103.054737 
L 80.093051 102.943818 
L 80.203629 102.651841 
L 80.262171 102.544184 
L 80.37275 102.302773 
L 80.422619 102.191854 
L 80.533198 101.963492 
L 80.576562 101.857467 
L 80.682805 101.67804 
L 80.747851 101.570383 
L 80.856262 101.423579 
L 80.908299 101.314291 
L 81.018878 101.050044 
L 81.086093 100.942387 
L 81.196671 100.725443 
L 81.253045 100.617787 
L 81.363624 100.329072 
L 81.422166 100.219784 
L 81.530576 99.929438 
L 81.608632 99.821782 
L 81.719211 99.547747 
L 81.773416 99.436829 
L 81.883995 99.211729 
L 81.959883 99.104072 
L 82.070462 98.890391 
L 82.115994 98.784365 
L 82.224405 98.544585 
L 82.308965 98.433666 
L 82.419544 98.224878 
L 82.486759 98.120484 
L 82.597338 97.908434 
L 82.662384 97.799146 
L 82.772963 97.577309 
L 82.851019 97.46639 
L 82.959429 97.24129 
L 83.009298 97.132002 
L 83.119877 96.919952 
L 83.200101 96.810664 
L 83.31068 96.623081 
L 83.364885 96.512162 
L 83.475464 96.288694 
L 83.534006 96.179406 
L 83.642417 96.009766 
L 83.700958 95.905372 
L 83.809369 95.685165 
L 83.865743 95.575878 
L 83.976322 95.43886 
L 84.071723 95.327942 
L 84.182302 95.155039 
L 84.243012 95.05717 
L 84.353591 94.848381 
L 84.414301 94.739094 
L 84.52488 94.610232 
L 84.58559 94.502576 
L 84.696169 94.355772 
L 84.76772 94.246484 
L 84.878299 94.026278 
L 84.928167 93.920252 
L 85.03441 93.722882 
L 85.099456 93.613595 
L 85.210035 93.385233 
L 85.270745 93.295519 
L 85.379156 93.073681 
L 85.43553 92.967656 
L 85.54394 92.78986 
L 85.598146 92.678941 
L 85.704388 92.523981 
L 85.760762 92.414694 
L 85.867004 92.178176 
L 85.925546 92.070519 
L 86.036125 91.869887 
L 86.17489 91.633369 
L 86.283301 91.491458 
L 86.337506 91.382171 
L 86.448085 91.22558 
L 86.549991 91.116292 
L 86.66057 90.936865 
L 86.725617 90.834102 
L 86.834027 90.674248 
L 86.918588 90.569854 
L 87.029167 90.331705 
L 87.102886 90.220786 
L 87.213465 90.04299 
L 87.282848 89.935334 
L 87.391258 89.773849 
L 87.499669 89.664561 
L 87.610248 89.472085 
L 87.675294 89.38074 
L 87.785873 89.193157 
L 87.857424 89.082238 
L 87.968003 88.938696 
L 88.03305 88.827777 
L 88.14146 88.623883 
L 88.213011 88.517857 
L 88.32359 88.3107 
L 88.395141 88.199782 
L 88.50572 88.061133 
L 88.607626 87.950214 
L 88.718205 87.801779 
L 88.804934 87.69086 
L 88.915513 87.503277 
L 88.987064 87.400514 
L 89.097643 87.219456 
L 89.167026 87.110168 
L 89.277604 86.984569 
L 89.35566 86.876912 
L 89.466239 86.707272 
L 89.518276 86.596353 
L 89.628855 86.469123 
L 89.750275 86.358204 
L 89.858686 86.221187 
L 89.969265 86.110268 
L 90.079844 85.956939 
L 90.131881 85.862332 
L 90.24246 85.70411 
L 90.348702 85.593191 
L 90.459281 85.501846 
L 90.554682 85.392559 
L 90.658757 85.265328 
L 90.756326 85.157672 
L 90.866905 85.040229 
L 90.973148 84.92931 
L 91.083727 84.777612 
L 91.166119 84.666693 
L 91.276698 84.510102 
L 91.350417 84.404077 
L 91.460996 84.289896 
L 91.562902 84.183871 
L 91.673481 84.046853 
L 91.803574 83.935935 
L 91.911984 83.808704 
L 92.020395 83.697786 
L 92.130974 83.516727 
L 92.239385 83.405808 
L 92.349964 83.29489 
L 92.447533 83.183971 
L 92.553776 83.048585 
L 92.618822 82.937666 
L 92.720728 82.768026 
L 92.835643 82.657107 
L 92.944054 82.52009 
L 93.071979 82.414064 
L 93.182558 82.296621 
L 93.314819 82.187333 
L 93.423229 82.092726 
L 93.548986 81.981807 
L 93.657396 81.848053 
L 93.752798 81.737134 
L 93.863377 81.611535 
L 93.958778 81.502247 
L 94.069357 81.368492 
L 94.16259 81.265729 
L 94.273169 81.148286 
L 94.366402 81.037367 
L 94.476981 80.910137 
L 94.596233 80.799218 
L 94.706812 80.716029 
L 94.849914 80.60511 
L 94.958325 80.476249 
L 95.077577 80.366961 
L 95.172978 80.273985 
L 95.307407 80.163066 
L 95.417986 80.060303 
L 95.506883 79.949385 
L 95.613125 79.853146 
L 95.70419 79.743859 
L 95.812601 79.621522 
L 95.94703 79.515497 
L 96.057609 79.385004 
L 96.179029 79.274085 
L 96.283103 79.14033 
L 96.419701 79.029412 
L 96.53028 78.918493 
L 96.67555 78.807574 
L 96.786129 78.716229 
L 96.903213 78.605311 
L 97.013792 78.494392 
L 97.141716 78.383473 
L 97.250127 78.300284 
L 97.399734 78.19589 
L 97.510312 78.062135 
L 97.640405 77.954479 
L 97.748816 77.866396 
L 97.891918 77.757108 
L 97.998161 77.639665 
L 98.121749 77.528746 
L 98.227991 77.424352 
L 98.39928 77.315065 
L 98.509859 77.246556 
L 98.639952 77.1389 
L 98.746194 77.05571 
L 98.843764 76.944792 
L 98.954343 76.853447 
L 99.060585 76.742528 
L 99.171164 76.636503 
L 99.290416 76.528846 
L 99.396659 76.439133 
L 99.554938 76.333108 
L 99.665517 76.220558 
L 99.778264 76.11127 
L 99.882338 76.032974 
L 99.995086 75.925318 
L 100.103496 75.845391 
L 100.235757 75.734473 
L 100.344168 75.63171 
L 100.482934 75.520791 
L 100.591344 75.426184 
L 100.749624 75.315265 
L 100.860203 75.192928 
L 100.964277 75.082009 
L 101.074856 74.98414 
L 101.185435 74.873221 
L 101.293846 74.794926 
L 101.45863 74.684007 
L 101.569209 74.591031 
L 101.690629 74.480112 
L 101.79904 74.367562 
L 101.948646 74.256643 
L 102.057057 74.137569 
L 102.195823 74.029913 
L 102.299897 73.946723 
L 102.497204 73.837436 
L 102.607783 73.739566 
L 102.731371 73.628648 
L 102.84195 73.555246 
L 102.985052 73.450851 
L 103.095631 73.338302 
L 103.21922 73.229014 
L 103.32763 73.127882 
L 103.490246 73.016963 
L 103.598657 72.912569 
L 103.722245 72.808175 
L 103.722245 72.801651 
L 103.830656 72.689101 
L 103.941235 72.578182 
L 104.051814 72.478681 
L 104.212262 72.369394 
L 104.318504 72.281311 
L 104.478952 72.170392 
L 104.587363 72.080679 
L 104.754315 71.971391 
L 104.856221 71.863735 
L 105.010164 71.757709 
L 105.116407 71.656578 
L 105.27035 71.545659 
L 105.380929 71.431478 
L 105.530536 71.320559 
L 105.641114 71.240632 
L 105.810235 71.134607 
L 105.918646 71.041631 
L 106.072589 70.930712 
L 106.183168 70.852417 
L 106.360961 70.741498 
L 106.47154 70.681145 
L 106.725221 70.573489 
L 106.8358 70.50498 
L 106.991912 70.395693 
L 107.100322 70.330446 
L 107.258602 70.221159 
L 107.360508 70.154281 
L 107.577329 70.044994 
L 107.68574 69.968329 
L 107.813665 69.85741 
L 107.924244 69.777484 
L 108.093364 69.666565 
L 108.190934 69.598056 
L 108.394746 69.4904 
L 108.505325 69.421891 
L 108.652764 69.310973 
L 108.761174 69.248989 
L 108.921622 69.13807 
L 109.027865 69.092397 
L 109.229508 68.981479 
L 109.340087 68.934175 
L 109.533058 68.824888 
L 109.643637 68.744961 
L 109.847449 68.637304 
L 109.953692 68.555746 
L 110.129317 68.444828 
L 110.237728 68.346958 
L 110.389503 68.239302 
L 110.497914 68.175687 
L 110.664866 68.064768 
L 110.771108 67.981579 
L 110.957575 67.87066 
L 111.068154 67.763004 
L 111.31533 67.656978 
L 111.425909 67.591732 
L 111.67959 67.480813 
L 111.790169 67.423723 
L 112.017831 67.312804 
L 112.126242 67.239402 
L 112.321381 67.130114 
L 112.427624 67.077917 
L 112.655286 66.966999 
L 112.761529 66.903383 
L 112.993528 66.795727 
L 113.104107 66.717431 
L 113.292741 66.608144 
L 113.398984 66.531479 
L 113.643992 66.422192 
L 113.752403 66.340634 
L 113.934532 66.229715 
L 114.045111 66.164469 
L 114.25326 66.05355 
L 114.363839 65.986673 
L 114.545969 65.879016 
L 114.652211 65.800721 
L 114.901556 65.689802 
L 115.007798 65.629449 
L 115.161742 65.520162 
L 115.27232 65.432079 
L 115.476133 65.324423 
L 115.582375 65.255914 
L 115.816542 65.146626 
L 115.922785 65.083011 
L 116.115756 64.973724 
L 116.226335 64.88401 
L 116.417137 64.773091 
L 116.527716 64.707845 
L 116.76622 64.596926 
L 116.876799 64.54636 
L 117.084947 64.435441 
L 117.195526 64.389769 
L 117.384161 64.282113 
L 117.490403 64.223391 
L 117.713729 64.115735 
L 117.824308 64.055382 
L 117.971747 63.944463 
L 118.082326 63.86943 
L 118.333838 63.760142 
L 118.437913 63.70142 
L 118.685089 63.593764 
L 118.791332 63.541567 
L 119.040676 63.430648 
L 119.151255 63.386607 
L 119.426618 63.277319 
L 119.532861 63.213704 
L 119.714991 63.102785 
L 119.82557 63.055482 
L 120.070578 62.955981 
L 120.174652 62.892366 
L 120.447847 62.781447 
L 120.556258 62.71457 
L 120.777415 62.610176 
L 120.883658 62.549823 
L 121.137339 62.438904 
L 121.24575 62.394863 
L 121.57315 62.283944 
L 121.677224 62.225222 
L 121.913559 62.119197 
L 122.019802 62.065369 
L 122.30167 61.95445 
L 122.41008 61.900622 
L 122.648584 61.796228 
L 122.752658 61.719564 
L 123.043199 61.610276 
L 123.153778 61.564604 
L 123.574411 61.453685 
L 123.680654 61.399857 
L 123.986372 61.288938 
L 124.094783 61.246528 
L 124.380987 61.135609 
L 124.480725 61.102986 
L 124.756088 60.992067 
L 124.847153 60.956182 
L 125.116011 60.848525 
L 125.22659 60.796328 
L 125.569168 60.685409 
L 125.673242 60.642999 
L 125.887895 60.533712 
L 125.99197 60.483146 
L 126.31937 60.372227 
L 126.429949 60.324923 
L 126.753013 60.214005 
L 126.861423 60.166701 
L 127.19316 60.055782 
L 127.301571 60.001954 
L 127.683177 59.891035 
L 127.793755 59.838838 
L 128.084296 59.72792 
L 128.18837 59.670829 
L 128.472406 59.55991 
L 128.580817 59.488139 
L 128.925563 59.377221 
L 129.031806 59.336442 
L 129.359206 59.225523 
L 129.469785 59.176588 
L 129.749484 59.06567 
L 129.860063 59.028153 
L 130.118081 58.917234 
L 130.22866 58.866668 
L 130.480172 58.759012 
L 130.590751 58.705184 
L 130.913815 58.594265 
L 131.017889 58.566535 
L 131.406 58.455616 
L 131.51441 58.403419 
L 131.813624 58.294132 
L 131.917698 58.23541 
L 132.336163 58.124491 
L 132.444574 58.090237 
L 132.741619 57.979318 
L 132.852198 57.938539 
L 133.181767 57.827621 
L 133.292346 57.794998 
L 133.619746 57.68571 
L 133.730325 57.646562 
L 134.049052 57.535643 
L 134.159631 57.506283 
L 134.519555 57.395364 
L 134.621461 57.356216 
L 134.959702 57.245297 
L 135.065945 57.212674 
L 135.458391 57.101755 
L 135.562466 57.057714 
L 135.972258 56.951689 
L 136.082837 56.902754 
L 136.369041 56.791835 
L 136.477452 56.747794 
L 136.924104 56.636875 
L 137.02601 56.591203 
L 137.45098 56.480284 
L 137.561559 56.439505 
L 137.910641 56.330218 
L 138.02122 56.299226 
L 138.433181 56.188307 
L 138.535087 56.147528 
L 138.899347 56.036609 
L 139.009926 56.000724 
L 139.426223 55.889805 
L 139.534634 55.852288 
L 139.883716 55.74137 
L 139.994295 55.703853 
L 140.391078 55.592934 
L 140.495152 55.550524 
L 140.967823 55.439605 
L 141.058888 55.402089 
L 141.555409 55.29117 
L 141.665988 55.265072 
L 141.969538 55.154153 
L 142.077948 55.119898 
L 142.513759 55.00898 
L 142.62217 54.976357 
L 143.018953 54.865438 
L 143.123027 54.842602 
L 143.498128 54.731683 
L 143.608707 54.68601 
L 144.046687 54.576723 
L 144.157265 54.526157 
L 144.623431 54.416869 
L 144.73401 54.394033 
L 145.211017 54.283114 
L 145.321596 54.261909 
L 145.690193 54.152622 
L 145.787762 54.128154 
L 146.19105 54.018867 
L 146.299461 53.978088 
L 146.887047 53.867169 
L 146.997626 53.834546 
L 147.411754 53.723627 
L 147.517997 53.694266 
L 147.997172 53.583348 
L 148.09691 53.549093 
L 148.664982 53.439806 
L 148.773393 53.40392 
L 149.243895 53.294633 
L 149.343633 53.27669 
L 149.798958 53.165771 
L 149.907369 53.139673 
L 150.358357 53.035279 
L 150.468936 53.002655 
L 150.980634 52.893368 
L 151.086877 52.855851 
L 151.574725 52.746564 
L 151.672295 52.713941 
L 152.23603 52.603022 
L 152.344441 52.576923 
L 152.869149 52.466005 
L 152.975391 52.439906 
L 153.660547 52.328987 
L 153.766789 52.297995 
L 154.287161 52.187077 
L 154.389067 52.152822 
L 154.963643 52.041903 
L 155.072054 52.02233 
L 155.731191 51.914673 
L 155.84177 51.888575 
L 156.301431 51.779287 
L 156.405506 51.758082 
L 157.008269 51.647163 
L 157.114511 51.62922 
L 157.522136 51.518302 
L 157.632715 51.485679 
L 158.163927 51.37476 
L 158.274506 51.353555 
L 158.898951 51.242636 
L 158.996521 51.210013 
L 159.679508 51.099094 
L 159.777078 51.087676 
L 160.377673 50.976757 
L 160.479579 50.949028 
L 161.054156 50.838109 
L 161.15823 50.807117 
L 161.706788 50.696198 
L 161.813031 50.6701 
L 162.446149 50.559181 
L 162.528541 50.536345 
L 163.330781 50.425426 
L 163.426182 50.399327 
L 164.126515 50.288409 
L 164.237094 50.270466 
L 164.818175 50.159547 
L 164.92225 50.133449 
L 165.752675 50.02253 
L 165.830731 50.001325 
L 166.60912 49.890406 
L 166.715362 49.86757 
L 167.272593 49.756651 
L 167.352817 49.746864 
L 168.129038 49.635945 
L 168.228776 49.622896 
L 168.801184 49.511977 
L 168.911763 49.48751 
L 169.560059 49.376591 
L 169.659797 49.358649 
L 170.620316 49.254255 
L 170.717885 49.223263 
L 171.522293 49.112344 
L 171.604685 49.097663 
L 172.480643 48.986745 
L 172.576044 48.960646 
L 173.144117 48.849727 
L 173.250359 48.836678 
L 174.05043 48.725759 
L 174.156672 48.704554 
L 174.846164 48.593636 
L 174.94807 48.572431 
L 175.693936 48.461512 
L 175.802347 48.448463 
L 176.743352 48.337544 
L 176.843089 48.316339 
L 177.818786 48.20542 
L 177.916355 48.185846 
L 178.803155 48.074927 
L 178.898556 48.058616 
L 179.932794 47.947697 
L 180.0347 47.911812 
L 180.967032 47.800893 
L 181.047256 47.786212 
L 181.990429 47.675294 
L 182.074989 47.662244 
L 182.825191 47.552957 
L 182.93577 47.536645 
L 183.792215 47.425726 
L 183.900625 47.407784 
L 184.926191 47.298496 
L 185.030265 47.283816 
L 185.767458 47.172897 
L 185.832504 47.159848 
L 186.7605 47.048929 
L 186.86891 47.040773 
L 187.616944 46.929854 
L 187.712345 46.918436 
L 188.657687 46.807518 
L 188.755256 46.791206 
L 189.780821 46.680287 
L 189.889232 46.657451 
L 190.945152 46.546532 
L 191.053563 46.538377 
L 191.883989 46.427458 
L 191.975054 46.420933 
L 191.9924 46.420933 
L 193.29116 46.310014 
L 193.386561 46.298596 
L 194.509696 46.187678 
L 194.61377 46.179522 
L 195.958063 46.068603 
L 196.064305 46.052291 
L 197.582055 45.941373 
L 197.660111 45.931586 
L 198.943693 45.820667 
L 199.049936 45.805987 
L 200.496134 45.695068 
L 200.578526 45.685281 
L 202.189509 45.574362 
L 202.263229 45.562944 
L 203.826511 45.452025 
L 203.928417 45.44387 
L 205.242354 45.332951 
L 205.344261 45.31827 
L 206.909711 45.207352 
L 206.996439 45.202458 
L 208.691983 45.091539 
L 208.793889 45.076859 
L 210.485096 44.96594 
L 210.573992 44.952891 
L 212.022359 44.841972 
L 212.113424 44.830554 
L 213.813304 44.719635 
L 213.861005 44.71148 
L 215.883948 44.600561 
L 215.988022 44.594036 
L 217.783303 44.483118 
L 217.891714 44.473331 
L 219.294549 44.362412 
L 219.294549 44.35915 
L 221.072484 44.248231 
L 221.159212 44.244969 
L 223.481369 44.13405 
L 223.591948 44.125894 
L 225.378557 44.014975 
L 225.428426 44.011713 
L 227.637835 43.900794 
L 227.6812 43.895901 
L 230.293897 43.784982 
L 230.387131 43.773564 
L 232.193253 43.662645 
L 232.204094 43.659383 
L 235.165874 43.548464 
L 235.200565 43.543571 
L 238.062608 43.432652 
L 238.153673 43.426127 
L 241.778926 43.315208 
L 241.876496 43.30379 
L 244.133606 43.232019 
L 414.72 41.472 
L 414.72 41.472 
" style="fill:none;stroke:#0000ff;stroke-linecap:square;stroke-width:1.5;"/>
   </g>
   <g id="line2d_14">
    <path clip-path="url(#p9ae2891c2c)" d="M 57.6 307.584 
L 414.72 41.472 
" style="fill:none;stroke:#ff0000;stroke-dasharray:5.55,2.4;stroke-dashoffset:0;stroke-width:1.5;"/>
   </g>
   <g id="patch_3">
    <path d="M 57.6 307.584 
L 57.6 41.472 
" style="fill:none;stroke:#000000;stroke-linecap:square;stroke-linejoin:miter;stroke-width:0.8;"/>
   </g>
   <g id="patch_4">
    <path d="M 414.72 307.584 
L 414.72 41.472 
" style="fill:none;stroke:#000000;stroke-linecap:square;stroke-linejoin:miter;stroke-width:0.8;"/>
   </g>
   <g id="patch_5">
    <path d="M 57.6 307.584 
L 414.72 307.584 
" style="fill:none;stroke:#000000;stroke-linecap:square;stroke-linejoin:miter;stroke-width:0.8;"/>
   </g>
   <g id="patch_6">
    <path d="M 57.6 41.472 
L 414.72 41.472 
" style="fill:none;stroke:#000000;stroke-linecap:square;stroke-linejoin:miter;stroke-width:0.8;"/>
   </g>
   <g id="text_15">
    <!-- Receiver Operating Characteristic (ROC) -->
    <defs>
     <path d="M 48.78125 52.59375 
L 48.78125 44.1875 
Q 44.96875 46.296875 41.140625 47.34375 
Q 37.3125 48.390625 33.40625 48.390625 
Q 24.65625 48.390625 19.8125 42.84375 
Q 14.984375 37.3125 14.984375 27.296875 
Q 14.984375 17.28125 19.8125 11.734375 
Q 24.65625 6.203125 33.40625 6.203125 
Q 37.3125 6.203125 41.140625 7.25 
Q 44.96875 8.296875 48.78125 10.40625 
L 48.78125 2.09375 
Q 45.015625 0.34375 40.984375 -0.53125 
Q 36.96875 -1.421875 32.421875 -1.421875 
Q 20.0625 -1.421875 12.78125 6.34375 
Q 5.515625 14.109375 5.515625 27.296875 
Q 5.515625 40.671875 12.859375 48.328125 
Q 20.21875 56 33.015625 56 
Q 37.15625 56 41.109375 55.140625 
Q 45.0625 54.296875 48.78125 52.59375 
z
" id="DejaVuSans-63"/>
     <path d="M 39.40625 66.21875 
Q 28.65625 66.21875 22.328125 58.203125 
Q 16.015625 50.203125 16.015625 36.375 
Q 16.015625 22.609375 22.328125 14.59375 
Q 28.65625 6.59375 39.40625 6.59375 
Q 50.140625 6.59375 56.421875 14.59375 
Q 62.703125 22.609375 62.703125 36.375 
Q 62.703125 50.203125 56.421875 58.203125 
Q 50.140625 66.21875 39.40625 66.21875 
z
M 39.40625 74.21875 
Q 54.734375 74.21875 63.90625 63.9375 
Q 73.09375 53.65625 73.09375 36.375 
Q 73.09375 19.140625 63.90625 8.859375 
Q 54.734375 -1.421875 39.40625 -1.421875 
Q 24.03125 -1.421875 14.8125 8.828125 
Q 5.609375 19.09375 5.609375 36.375 
Q 5.609375 53.65625 14.8125 63.9375 
Q 24.03125 74.21875 39.40625 74.21875 
z
" id="DejaVuSans-4f"/>
     <path d="M 18.109375 8.203125 
L 18.109375 -20.796875 
L 9.078125 -20.796875 
L 9.078125 54.6875 
L 18.109375 54.6875 
L 18.109375 46.390625 
Q 20.953125 51.265625 25.265625 53.625 
Q 29.59375 56 35.59375 56 
Q 45.5625 56 51.78125 48.09375 
Q 58.015625 40.1875 58.015625 27.296875 
Q 58.015625 14.40625 51.78125 6.484375 
Q 45.5625 -1.421875 35.59375 -1.421875 
Q 29.59375 -1.421875 25.265625 0.953125 
Q 20.953125 3.328125 18.109375 8.203125 
z
M 48.6875 27.296875 
Q 48.6875 37.203125 44.609375 42.84375 
Q 40.53125 48.484375 33.40625 48.484375 
Q 26.265625 48.484375 22.1875 42.84375 
Q 18.109375 37.203125 18.109375 27.296875 
Q 18.109375 17.390625 22.1875 11.75 
Q 26.265625 6.109375 33.40625 6.109375 
Q 40.53125 6.109375 44.609375 11.75 
Q 48.6875 17.390625 48.6875 27.296875 
z
" id="DejaVuSans-70"/>
     <path d="M 54.890625 33.015625 
L 54.890625 0 
L 45.90625 0 
L 45.90625 32.71875 
Q 45.90625 40.484375 42.875 44.328125 
Q 39.84375 48.1875 33.796875 48.1875 
Q 26.515625 48.1875 22.3125 43.546875 
Q 18.109375 38.921875 18.109375 30.90625 
L 18.109375 0 
L 9.078125 0 
L 9.078125 54.6875 
L 18.109375 54.6875 
L 18.109375 46.1875 
Q 21.34375 51.125 25.703125 53.5625 
Q 30.078125 56 35.796875 56 
Q 45.21875 56 50.046875 50.171875 
Q 54.890625 44.34375 54.890625 33.015625 
z
" id="DejaVuSans-6e"/>
     <path d="M 45.40625 27.984375 
Q 45.40625 37.75 41.375 43.109375 
Q 37.359375 48.484375 30.078125 48.484375 
Q 22.859375 48.484375 18.828125 43.109375 
Q 14.796875 37.75 14.796875 27.984375 
Q 14.796875 18.265625 18.828125 12.890625 
Q 22.859375 7.515625 30.078125 7.515625 
Q 37.359375 7.515625 41.375 12.890625 
Q 45.40625 18.265625 45.40625 27.984375 
z
M 54.390625 6.78125 
Q 54.390625 -7.171875 48.1875 -13.984375 
Q 42 -20.796875 29.203125 -20.796875 
Q 24.46875 -20.796875 20.265625 -20.09375 
Q 16.0625 -19.390625 12.109375 -17.921875 
L 12.109375 -9.1875 
Q 16.0625 -11.328125 19.921875 -12.34375 
Q 23.78125 -13.375 27.78125 -13.375 
Q 36.625 -13.375 41.015625 -8.765625 
Q 45.40625 -4.15625 45.40625 5.171875 
L 45.40625 9.625 
Q 42.625 4.78125 38.28125 2.390625 
Q 33.9375 0 27.875 0 
Q 17.828125 0 11.671875 7.65625 
Q 5.515625 15.328125 5.515625 27.984375 
Q 5.515625 40.671875 11.671875 48.328125 
Q 17.828125 56 27.875 56 
Q 33.9375 56 38.28125 53.609375 
Q 42.625 51.21875 45.40625 46.390625 
L 45.40625 54.6875 
L 54.390625 54.6875 
z
" id="DejaVuSans-67"/>
     <path d="M 64.40625 67.28125 
L 64.40625 56.890625 
Q 59.421875 61.53125 53.78125 63.8125 
Q 48.140625 66.109375 41.796875 66.109375 
Q 29.296875 66.109375 22.65625 58.46875 
Q 16.015625 50.828125 16.015625 36.375 
Q 16.015625 21.96875 22.65625 14.328125 
Q 29.296875 6.6875 41.796875 6.6875 
Q 48.140625 6.6875 53.78125 8.984375 
Q 59.421875 11.28125 64.40625 15.921875 
L 64.40625 5.609375 
Q 59.234375 2.09375 53.4375 0.328125 
Q 47.65625 -1.421875 41.21875 -1.421875 
Q 24.65625 -1.421875 15.125 8.703125 
Q 5.609375 18.84375 5.609375 36.375 
Q 5.609375 53.953125 15.125 64.078125 
Q 24.65625 74.21875 41.21875 74.21875 
Q 47.75 74.21875 53.53125 72.484375 
Q 59.328125 70.75 64.40625 67.28125 
z
" id="DejaVuSans-43"/>
     <path d="M 54.890625 33.015625 
L 54.890625 0 
L 45.90625 0 
L 45.90625 32.71875 
Q 45.90625 40.484375 42.875 44.328125 
Q 39.84375 48.1875 33.796875 48.1875 
Q 26.515625 48.1875 22.3125 43.546875 
Q 18.109375 38.921875 18.109375 30.90625 
L 18.109375 0 
L 9.078125 0 
L 9.078125 75.984375 
L 18.109375 75.984375 
L 18.109375 46.1875 
Q 21.34375 51.125 25.703125 53.5625 
Q 30.078125 56 35.796875 56 
Q 45.21875 56 50.046875 50.171875 
Q 54.890625 44.34375 54.890625 33.015625 
z
" id="DejaVuSans-68"/>
     <path d="M 31 75.875 
Q 24.46875 64.65625 21.28125 53.65625 
Q 18.109375 42.671875 18.109375 31.390625 
Q 18.109375 20.125 21.3125 9.0625 
Q 24.515625 -2 31 -13.1875 
L 23.1875 -13.1875 
Q 15.875 -1.703125 12.234375 9.375 
Q 8.59375 20.453125 8.59375 31.390625 
Q 8.59375 42.28125 12.203125 53.3125 
Q 15.828125 64.359375 23.1875 75.875 
z
" id="DejaVuSans-28"/>
     <path d="M 8.015625 75.875 
L 15.828125 75.875 
Q 23.140625 64.359375 26.78125 53.3125 
Q 30.421875 42.28125 30.421875 31.390625 
Q 30.421875 20.453125 26.78125 9.375 
Q 23.140625 -1.703125 15.828125 -13.1875 
L 8.015625 -13.1875 
Q 14.5 -2 17.703125 9.0625 
Q 20.90625 20.125 20.90625 31.390625 
Q 20.90625 42.671875 17.703125 53.65625 
Q 14.5 64.65625 8.015625 75.875 
z
" id="DejaVuSans-29"/>
    </defs>
    <g transform="translate(114.72 35.472)scale(0.12 -0.12)">
     <use xlink:href="#DejaVuSans-52"/>
     <use x="69.419922" xlink:href="#DejaVuSans-65"/>
     <use x="130.943359" xlink:href="#DejaVuSans-63"/>
     <use x="185.923828" xlink:href="#DejaVuSans-65"/>
     <use x="247.447266" xlink:href="#DejaVuSans-69"/>
     <use x="275.230469" xlink:href="#DejaVuSans-76"/>
     <use x="334.410156" xlink:href="#DejaVuSans-65"/>
     <use x="395.933594" xlink:href="#DejaVuSans-72"/>
     <use x="437.046875" xlink:href="#DejaVuSans-20"/>
     <use x="468.833984" xlink:href="#DejaVuSans-4f"/>
     <use x="547.544922" xlink:href="#DejaVuSans-70"/>
     <use x="611.021484" xlink:href="#DejaVuSans-65"/>
     <use x="672.544922" xlink:href="#DejaVuSans-72"/>
     <use x="713.658203" xlink:href="#DejaVuSans-61"/>
     <use x="774.9375" xlink:href="#DejaVuSans-74"/>
     <use x="814.146484" xlink:href="#DejaVuSans-69"/>
     <use x="841.929688" xlink:href="#DejaVuSans-6e"/>
     <use x="905.308594" xlink:href="#DejaVuSans-67"/>
     <use x="968.785156" xlink:href="#DejaVuSans-20"/>
     <use x="1000.572266" xlink:href="#DejaVuSans-43"/>
     <use x="1070.396484" xlink:href="#DejaVuSans-68"/>
     <use x="1133.775391" xlink:href="#DejaVuSans-61"/>
     <use x="1195.054688" xlink:href="#DejaVuSans-72"/>
     <use x="1236.167969" xlink:href="#DejaVuSans-61"/>
     <use x="1297.447266" xlink:href="#DejaVuSans-63"/>
     <use x="1352.427734" xlink:href="#DejaVuSans-74"/>
     <use x="1391.636719" xlink:href="#DejaVuSans-65"/>
     <use x="1453.160156" xlink:href="#DejaVuSans-72"/>
     <use x="1494.273438" xlink:href="#DejaVuSans-69"/>
     <use x="1522.056641" xlink:href="#DejaVuSans-73"/>
     <use x="1574.15625" xlink:href="#DejaVuSans-74"/>
     <use x="1613.365234" xlink:href="#DejaVuSans-69"/>
     <use x="1641.148438" xlink:href="#DejaVuSans-63"/>
     <use x="1696.128906" xlink:href="#DejaVuSans-20"/>
     <use x="1727.916016" xlink:href="#DejaVuSans-28"/>
     <use x="1766.929688" xlink:href="#DejaVuSans-52"/>
     <use x="1836.412109" xlink:href="#DejaVuSans-4f"/>
     <use x="1915.123047" xlink:href="#DejaVuSans-43"/>
     <use x="1984.947266" xlink:href="#DejaVuSans-29"/>
    </g>
   </g>
   <g id="legend_1">
    <g id="patch_7">
     <path d="M 252.22 302.584 
L 407.72 302.584 
Q 409.72 302.584 409.72 300.584 
L 409.72 286.905875 
Q 409.72 284.905875 407.72 284.905875 
L 252.22 284.905875 
Q 250.22 284.905875 250.22 286.905875 
L 250.22 300.584 
Q 250.22 302.584 252.22 302.584 
z
" style="fill:#ffffff;opacity:0.8;stroke:#cccccc;stroke-linejoin:miter;"/>
    </g>
    <g id="line2d_15">
     <path d="M 254.22 293.004312 
L 274.22 293.004312 
" style="fill:none;stroke:#0000ff;stroke-linecap:square;stroke-width:1.5;"/>
    </g>
    <g id="line2d_16"/>
    <g id="text_16">
     <!-- ROC curve (area = 0.95) -->
     <defs>
      <path d="M 10.59375 45.40625 
L 73.1875 45.40625 
L 73.1875 37.203125 
L 10.59375 37.203125 
z
M 10.59375 25.484375 
L 73.1875 25.484375 
L 73.1875 17.1875 
L 10.59375 17.1875 
z
" id="DejaVuSans-3d"/>
      <path d="M 10.984375 1.515625 
L 10.984375 10.5 
Q 14.703125 8.734375 18.5 7.8125 
Q 22.3125 6.890625 25.984375 6.890625 
Q 35.75 6.890625 40.890625 13.453125 
Q 46.046875 20.015625 46.78125 33.40625 
Q 43.953125 29.203125 39.59375 26.953125 
Q 35.25 24.703125 29.984375 24.703125 
Q 19.046875 24.703125 12.671875 31.3125 
Q 6.296875 37.9375 6.296875 49.421875 
Q 6.296875 60.640625 12.9375 67.421875 
Q 19.578125 74.21875 30.609375 74.21875 
Q 43.265625 74.21875 49.921875 64.515625 
Q 56.59375 54.828125 56.59375 36.375 
Q 56.59375 19.140625 48.40625 8.859375 
Q 40.234375 -1.421875 26.421875 -1.421875 
Q 22.703125 -1.421875 18.890625 -0.6875 
Q 15.09375 0.046875 10.984375 1.515625 
z
M 30.609375 32.421875 
Q 37.25 32.421875 41.125 36.953125 
Q 45.015625 41.5 45.015625 49.421875 
Q 45.015625 57.28125 41.125 61.84375 
Q 37.25 66.40625 30.609375 66.40625 
Q 23.96875 66.40625 20.09375 61.84375 
Q 16.21875 57.28125 16.21875 49.421875 
Q 16.21875 41.5 20.09375 36.953125 
Q 23.96875 32.421875 30.609375 32.421875 
z
" id="DejaVuSans-39"/>
      <path d="M 10.796875 72.90625 
L 49.515625 72.90625 
L 49.515625 64.59375 
L 19.828125 64.59375 
L 19.828125 46.734375 
Q 21.96875 47.46875 24.109375 47.828125 
Q 26.265625 48.1875 28.421875 48.1875 
Q 40.625 48.1875 47.75 41.5 
Q 54.890625 34.8125 54.890625 23.390625 
Q 54.890625 11.625 47.5625 5.09375 
Q 40.234375 -1.421875 26.90625 -1.421875 
Q 22.3125 -1.421875 17.546875 -0.640625 
Q 12.796875 0.140625 7.71875 1.703125 
L 7.71875 11.625 
Q 12.109375 9.234375 16.796875 8.0625 
Q 21.484375 6.890625 26.703125 6.890625 
Q 35.15625 6.890625 40.078125 11.328125 
Q 45.015625 15.765625 45.015625 23.390625 
Q 45.015625 31 40.078125 35.4375 
Q 35.15625 39.890625 26.703125 39.890625 
Q 22.75 39.890625 18.8125 39.015625 
Q 14.890625 38.140625 10.796875 36.28125 
z
" id="DejaVuSans-35"/>
     </defs>
     <g transform="translate(282.22 296.504312)scale(0.1 -0.1)">
      <use xlink:href="#DejaVuSans-52"/>
      <use x="69.482422" xlink:href="#DejaVuSans-4f"/>
      <use x="148.193359" xlink:href="#DejaVuSans-43"/>
      <use x="218.017578" xlink:href="#DejaVuSans-20"/>
      <use x="249.804688" xlink:href="#DejaVuSans-63"/>
      <use x="304.785156" xlink:href="#DejaVuSans-75"/>
      <use x="368.164062" xlink:href="#DejaVuSans-72"/>
      <use x="409.277344" xlink:href="#DejaVuSans-76"/>
      <use x="468.457031" xlink:href="#DejaVuSans-65"/>
      <use x="529.980469" xlink:href="#DejaVuSans-20"/>
      <use x="561.767578" xlink:href="#DejaVuSans-28"/>
      <use x="600.78125" xlink:href="#DejaVuSans-61"/>
      <use x="662.060547" xlink:href="#DejaVuSans-72"/>
      <use x="703.142578" xlink:href="#DejaVuSans-65"/>
      <use x="764.666016" xlink:href="#DejaVuSans-61"/>
      <use x="825.945312" xlink:href="#DejaVuSans-20"/>
      <use x="857.732422" xlink:href="#DejaVuSans-3d"/>
      <use x="941.521484" xlink:href="#DejaVuSans-20"/>
      <use x="973.308594" xlink:href="#DejaVuSans-30"/>
      <use x="1036.931641" xlink:href="#DejaVuSans-2e"/>
      <use x="1068.71875" xlink:href="#DejaVuSans-39"/>
      <use x="1132.341797" xlink:href="#DejaVuSans-35"/>
      <use x="1195.964844" xlink:href="#DejaVuSans-29"/>
     </g>
    </g>
   </g>
  </g>
 </g>
 <defs>
  <clipPath id="p9ae2891c2c">
   <rect height="266.112" width="357.12" x="57.6" y="41.472"/>
  </clipPath>
 </defs>
</svg>
